<?xml version="1.0" encoding="utf-8"?>
<!-- Generator: Adobe Illustrator 26.0.1, SVG Export Plug-In . SVG Version: 6.00 Build 0)  -->
<svg version="1.1" id="Layer_1" xmlns="http://www.w3.org/2000/svg" xmlns:xlink="http://www.w3.org/1999/xlink" x="0px" y="0px"
	 viewBox="0 0 1080 1080" style="enable-background:new 0 0 1080 1080;" xml:space="preserve">
<style type="text/css">
	.st0{fill:#FFFFFF;}
</style>
<path class="st0" d="M250,227.2c0,12.1-0.1,22.9,0,33.8c0.5,26.9,19.5,47,44.6,47.1c25.6,0.2,45.3-20,45.7-47.1
	c0.2-10.8,0-21.6,0-33.1h295.7c0,10.6,0,21.3,0,32c-0.1,15.7,5.1,29.1,18.1,38.7c14.5,10.9,30.4,12.7,46.6,4.8s25-21.2,25.7-39.3
	c0.4-11.8,0.1-23.7,0.1-38.4c23.4,1.6,46.5,0.3,68.2,5.2c28.5,6.4,47.4,32.4,47.6,62.3c0.7,80.2,0.2,160.4,0.4,240.6
	c0,5.5-1.8,7.6-7.4,7.5c-18.4-0.2-36.8-0.1-56.5-0.1v-142H196.1v352.2h371.1V829c-3.1,0.2-6.2,0.5-9.4,0.5c-117.9,0-235.7,0-353.5,0
	c-44,0-72.4-28.5-72.4-72.5c0-152.5,0-305,0-457.5c0-43.8,28.8-72.2,72.8-72.2L250,227.2z"/>
<path class="st0" d="M948.1,758c-0.4,90.7-74.5,164.1-165.2,163.5s-163.8-74.4-163.5-165.3s74.1-163.6,165.3-163.3
	c90.5,0.2,163.7,73.8,163.4,164.3C948.1,757.5,948.1,757.7,948.1,758z M913.1,756.5c-0.9-72.2-59.3-129.9-130.4-128.9
	c-72.3,1-128.9,59.3-128.1,132.1c0.8,71,59.9,127.7,132.3,126.8C856.5,885.5,914,826.3,913.1,756.5L913.1,756.5z"/>
<path class="st0" d="M601.1,552.9h-91.8v-93.6h84.8c4.4,0,8.7-0.5,8.6,6.2c-0.3,28.4-0.4,56.7-0.5,85.1
	C602.2,551.2,601.6,551.8,601.1,552.9z"/>
<path class="st0" d="M645.9,552.9v-46.7c0-13.2-0.3-26.4,0.3-39.5c0.1-2.5,3.4-6.9,5.2-7c28.9-0.5,57.9-0.3,87.7-0.3v93.5
	L645.9,552.9z"/>
<path class="st0" d="M327.7,460v92.8h-92.5V460H327.7z"/>
<path class="st0" d="M509.3,590h92.6v92.6h-92.6V590z"/>
<path class="st0" d="M372.3,459.4c29.8,0,58.8-0.1,87.8,0.2c1.8,0,5,3.4,5,5.3c0.3,29,0.2,58,0.2,87.8h-93L372.3,459.4z"/>
<path class="st0" d="M235.2,590.2h92.2v92.4h-92.2V590.2z"/>
<path class="st0" d="M464.9,590.4v92.5h-92.6v-92.5H464.9z"/>
<path class="st0" d="M328,226.8c0,11.9,0.2,23.8-0.1,35.6c-0.5,19.2-15,33.6-33.3,33.4c-17.9-0.2-32-14.5-32.2-33.3
	c-0.3-23.8-0.3-47.5,0-71.2c0.3-18.7,14.8-32.9,32.6-32.9c18,0,32.3,14.1,32.9,32.8C328.2,203.1,327.9,214.9,328,226.8L328,226.8z"
	/>
<path class="st0" d="M648.5,226.9c0-11.9-0.2-23.8,0-35.6c0.5-18.6,14.8-32.9,32.7-32.8s32.5,14.1,32.8,32.8
	c0.4,24.1,0.4,48.1,0,72.2c-0.3,18.1-15.2,32.6-33.3,32.3c0,0,0,0,0,0c-17.6-0.2-31.6-14-32.2-32.3
	C648.2,251.3,648.5,239.1,648.5,226.9z"/>
<path class="st0" d="M766.5,709c0-14.5-0.1-29,0-43.5c0.1-12.4,6.6-20,16.8-20.3c10.6-0.3,17.6,7.7,17.7,20.5
	c0.1,24.1,0.3,48.2-0.1,72.2c-0.2,7.3,2.4,11.2,8.7,14.6c16.2,8.8,32.1,18.3,48.1,27.5c11.3,6.5,15.1,16.1,10.2,25.2
	c-5.2,9.6-15.4,11.3-27.4,4.5c-20.9-12-41.7-24.1-62.6-35.9c-8-4.5-11.7-10.9-11.5-20.1C766.6,738.7,766.4,723.8,766.5,709
	L766.5,709z"/>
</svg>
