<?xml version="1.0" encoding="utf-8"?>
<!-- Generator: Adobe Illustrator 26.0.1, SVG Export Plug-In . SVG Version: 6.00 Build 0)  -->
<svg version="1.1" id="Layer_1" xmlns="http://www.w3.org/2000/svg" xmlns:xlink="http://www.w3.org/1999/xlink" x="0px" y="0px"
	 viewBox="0 0 1080 1080" style="enable-background:new 0 0 1080 1080;" xml:space="preserve">
<style type="text/css">
	.st0{fill:#FFFDFD;}
	.st1{font-family:'MyriadPro-Regular';}
	.st2{font-size:457.38px;}
</style>
<g>
	<path class="st0" d="M600.9,254.9c8.7-4.3,16-7.9,23.4-11.6c55.9-28.1,114.6,7.8,114.7,70.1c0,29,0,58.1,0,88.6c3.7,0,7.1,0,10.4,0
		c26.2,0,52.4-0.1,78.6,0c63.5,0.2,110,46.6,110.3,110c0.1,29.3,0,58.7,0,88.6c4.7,0.7,9.1,1.3,13.3,2.1c34,6.4,60,32.6,62.6,67
		c2,26,2.2,52.5-0.1,78.5c-3.5,38.6-32.6,63.8-75.8,68.3c0,2.9,0,6,0,9c0,26.5,0.1,53,0,79.5c-0.3,63.5-46.7,110.3-110,110.3
		c-217.8,0.1-435.7,0.1-653.5,0c-63.9,0-110.5-46.8-110.5-110.8c-0.1-130.6-0.1-261.2,0-391.8C64.3,449,110.1,403.1,174,401.8
		c4.5-0.1,9.9-2.4,13.3-5.4c94.6-82.5,188.9-165.3,283.3-248c32.3-28.3,71.8-30,102.6-4c18.1,15.3,27,35.3,27.6,58.8
		C601.3,219.8,600.9,236.4,600.9,254.9z M907.4,816c-3.5,0-6,0-8.5,0c-47.9,0-95.8,0.1-143.7,0c-37.9-0.1-62-18.5-71.7-55.2
		c-8-30.4-8.3-61.4-2.6-92.1c9-48.6,32.5-67.3,82-67.3c44.7,0,89.4,0,134.1,0c3.4,0,6.7,0,10.7,0c0-29.4,0-57.4,0-85.5
		c0-51.2-31.8-83.2-82.9-83.2c-215.6,0-431.2,0-646.8,0c-51.2,0-83.1,31.8-83.1,83c0,128.7,0,257.4,0,386.1
		c0,51.1,31.9,82.9,83.1,82.9c127.4,0,254.9,0,382.3,0c89.7,0,179.5,0.1,269.2-0.1c41.2-0.1,75.3-29.8,77.5-69.8
		C908.8,882.4,907.4,849.8,907.4,816z M227.8,402c27.3,0,51.7,0.1,76.2-0.1c2.1,0,4.3-1,6.3-2C395,357.7,479.8,315.5,564.4,273
		c2.8-1.4,5.6-6,5.7-9.2c0.5-18.5,0.1-37,0.3-55.5c0.3-21.5-8.2-38-27.9-47.2c-19.9-9.3-36.8-2.7-52.5,11.2
		c-48.3,42.7-96.9,85-145.4,127.5C306.4,333.1,268.2,366.6,227.8,402z M845.6,785.3c30.3,0,60.6,0.1,91,0
		c28-0.1,47.6-19.6,47.8-47.6c0.2-19.1,0.1-38.3,0-57.4c-0.2-28.7-19.5-48.2-48.1-48.3c-60.3-0.1-120.6-0.1-181,0
		c-24.1,0-36.9,9.5-42.4,33.1c-6.8,29-6.8,58.3,0.1,87.3c5.6,23.5,18.4,32.8,42.6,32.9C785.6,785.4,815.6,785.3,845.6,785.3z
		 M708.2,401.6c0-32.6,0.7-64.2-0.3-95.8c-0.6-18.5-11.4-31.3-28.6-38.4c-14.7-6.1-28.5-3.2-42.3,3.7c-84.1,42.1-168.3,84-252.4,126
		c-2.1,1-4,2.4-7.5,4.5C488.5,401.6,597.9,401.6,708.2,401.6z"/>
	<path class="st0" d="M847.8,218c-6.9,0-13.2,0-19.5,0c-11.2,0-19.8-4.6-25-14.6c-5.2-10.1-3.6-19.7,3.1-28.7
		c23.1-31,46-62,69.2-92.9c17.2-22.8,46-23,63.3-0.3c23.5,31,46.5,62.4,69.8,93.6c6.7,9,8.3,18.5,2.9,28.7
		c-5.1,9.7-13.4,14.1-24.2,14.1c-6,0-12.1,0-17.1,0c-4.4,18.5-7.3,36.5-12.9,53.7c-15.1,46.1-43.6,82.4-83.5,110
		c-8.5,5.9-15.9,6.3-24.3-0.2c-18.2-14.1-36.7-27.6-55.1-41.5c-13.4-10.1-12.9-21.6,1.7-30c32.7-18.9,50.7-46.6,52-84.7
		C848.3,223.3,848,221.1,847.8,218z M979.1,187.4c-2.2-3.2-3.3-5.1-4.6-6.8c-19.4-26.1-38.8-52.3-58.3-78.3
		c-6.9-9.2-10.6-9.2-17.5,0c-19.7,26.3-39.2,52.8-58.8,79.2c-1.2,1.6-1.8,3.5-3.1,6c8.5,0,15.8-0.2,23.1,0
		c9.8,0.3,15.5,5.1,16.9,14.8c7.2,47.2-7.1,86.8-42.6,118.8c-2,1.8-4,3.6-6.5,5.8c11.8,8.9,23,17.2,34.3,25.7c4-3.2,7.6-5.8,11-8.8
		c41.6-36.4,63.3-82.3,65.2-137.6c0.5-13.3,5.6-18.5,18.7-18.7C963.7,187.3,970.4,187.4,979.1,187.4z"/>
	<path class="st0" d="M800.7,647.4c33.8,0.1,61.2,28,61,61.9c-0.2,33.7-28.2,61.1-62.1,60.7c-33.3-0.4-60.5-28-60.5-61.4
		C739.1,674.8,766.8,647.2,800.7,647.4z M800.6,739.3c16.6-0.2,30.4-14.1,30.3-30.7c0-16.6-13.8-30.5-30.5-30.6
		c-17.1-0.1-31.1,14.1-30.8,31.2C770,725.8,784,739.5,800.6,739.3z"/>
</g>
<text transform="matrix(1 0 0 1 304.5 849.09)" class="st0 st1 st2">$</text>
</svg>
